<svg width="16" height="16" viewBox="0 0 16 16" fill="none" xmlns="http://www.w3.org/2000/svg">
<path d="M8.192 0C10.708 0 13.0376 1.116 14.5824 2.9952C14.6264 3.04847 14.6593 3.11004 14.679 3.17627C14.6987 3.24249 14.7049 3.312 14.6972 3.38067C14.6895 3.44934 14.6681 3.51576 14.6342 3.57597C14.6003 3.63619 14.5547 3.68898 14.5 3.7312C14.3886 3.81848 14.2477 3.85895 14.107 3.84401C13.9663 3.82908 13.8369 3.75991 13.7464 3.6512C13.0709 2.83294 12.2223 2.17483 11.2616 1.72438C10.3009 1.27393 9.25223 1.04236 8.1912 1.0464C4.2592 1.0464 1.0712 4.16 1.0712 8C1.0712 11.84 4.2592 14.9536 8.1912 14.9536C9.26753 14.9578 10.331 14.7196 11.3027 14.2566C12.2743 13.7936 13.1293 13.1178 13.804 12.2792C13.893 12.1694 14.0213 12.0985 14.1617 12.0816C14.3021 12.0648 14.4435 12.1032 14.556 12.1888C14.6112 12.2303 14.6575 12.2825 14.6921 12.3422C14.7267 12.4019 14.749 12.468 14.7575 12.5365C14.7661 12.605 14.7609 12.6746 14.742 12.741C14.7232 12.8074 14.6912 12.8694 14.648 12.9232C13.1056 14.8512 10.7448 16 8.192 16C3.6664 16 0 12.4184 0 8C0 3.5816 3.6672 0 8.192 0ZM13.6784 5.728L15.8432 7.8936C16.0528 8.1024 16.0568 8.4376 15.8528 8.6424L13.7376 10.7568C13.688 10.8056 13.6293 10.8442 13.5647 10.8702C13.5002 10.8962 13.4311 10.9093 13.3615 10.9085C13.2919 10.9078 13.2232 10.8933 13.1592 10.8659C13.0953 10.8385 13.0373 10.7987 12.9888 10.7488C12.9388 10.7003 12.8988 10.6424 12.8713 10.5784C12.8437 10.5144 12.8291 10.4455 12.8283 10.3758C12.8275 10.3061 12.8405 10.237 12.8665 10.1723C12.8925 10.1077 12.9311 10.0489 12.98 9.9992L14.2176 8.7616H5.9696C5.89999 8.76266 5.83087 8.74994 5.76619 8.72418C5.70152 8.69842 5.64258 8.66012 5.59276 8.6115C5.54295 8.56287 5.50324 8.50487 5.47592 8.44084C5.44861 8.37681 5.43422 8.30801 5.4336 8.2384C5.4336 7.9488 5.6736 7.7144 5.9696 7.7144H14.1848L12.9384 6.468C12.8885 6.41952 12.8486 6.36164 12.8211 6.2977C12.7937 6.23376 12.7791 6.16502 12.7783 6.09543C12.7775 6.02584 12.7904 5.95678 12.8164 5.89221C12.8424 5.82764 12.8808 5.76885 12.9296 5.7192C12.9792 5.67043 13.038 5.63195 13.1026 5.60598C13.1672 5.58002 13.2362 5.56707 13.3058 5.56789C13.3754 5.5687 13.4442 5.58327 13.5081 5.61075C13.572 5.63823 13.6299 5.67808 13.6784 5.728Z" fill="white"/>
</svg>
