<svg width="16" height="16" viewBox="0 0 16 16" fill="none" xmlns="http://www.w3.org/2000/svg">
<g clip-path="url(#clip0_48_132)">
<path d="M3.33341 3.33334H4.66675V4.66667H3.33341V3.33334ZM0.666748 0.666672H7.33341V7.33334H0.666748V0.666672ZM2.00008 2.00001V6.00001H6.00008V2.00001H2.00008ZM3.33341 11.3333H4.66675V12.6667H3.33341V11.3333ZM0.666748 8.66667H7.33341V15.3333H0.666748V8.66667ZM2.00008 10V14H6.00008V10H2.00008ZM8.66675 8.66667H11.3334V10H12.6667V8.66667H15.3334V10H12.6667V11.3333H15.3334V15.3333H12.6667V14H10.0001V15.3333H8.66675V14H10.0001V12.6667H8.66675V8.66667ZM14.0001 14V12.6667H12.6667V14H14.0001ZM12.6667 11.3333H11.3334V10H10.0001V12.6667H12.6667V11.3333ZM11.3334 1.33334V3.33334H9.33341V4.66667H11.3334V6.66667H12.6667V4.66667H14.6667V3.33334H12.6667V1.33334H11.3334Z" fill="white"/>
</g>
<defs>
<clipPath id="clip0_48_132">
<rect width="16" height="16" fill="white"/>
</clipPath>
</defs>
</svg>
