<svg width="32" height="32" viewBox="0 0 32 32" fill="none" xmlns="http://www.w3.org/2000/svg">
<rect width="32" height="32" rx="5" fill="url(#paint0_linear_79_205)"/>
<path d="M14.8266 9.28V12.74C14.8357 13.1614 14.7174 13.5758 14.4871 13.9288C14.2568 14.2818 13.9253 14.5571 13.536 14.7187C13.2774 14.8264 13.0001 14.8821 12.72 14.8827H9.2533C8.69403 14.8827 8.15741 14.6617 7.76033 14.2679C7.36325 13.874 7.13788 13.3392 7.1333 12.78V9.32C7.13295 9.04168 7.18757 8.76604 7.29404 8.5089C7.4005 8.25175 7.55671 8.01817 7.75369 7.82156C7.95068 7.62495 8.18455 7.46918 8.4419 7.3632C8.69925 7.25722 8.97499 7.20312 9.2533 7.204H12.72C13.2724 7.20735 13.8017 7.4262 14.1951 7.81394C14.5886 8.20169 14.8152 8.7277 14.8266 9.28ZM14.8266 19.2733V22.7333C14.8273 23.2931 14.6059 23.8303 14.211 24.2271C13.816 24.6238 13.2798 24.8476 12.72 24.8493H9.2533C8.69174 24.8493 8.15311 24.6265 7.75565 24.2298C7.35819 23.8331 7.13436 23.2949 7.1333 22.7333V19.2733C7.13613 18.7135 7.36094 18.1777 7.7584 17.7835C8.15587 17.3893 8.6935 17.1689 9.2533 17.1707H12.72C13.278 17.1707 13.8132 17.3921 14.2082 17.7863C14.6032 18.1805 14.8256 18.7153 14.8266 19.2733ZM24.88 9.28V12.74C24.8879 13.2953 24.6769 13.8314 24.2927 14.2324C23.9084 14.6334 23.3818 14.867 22.8266 14.8827H19.3733C18.814 14.8827 18.2774 14.6617 17.8803 14.2679C17.4832 13.874 17.2579 13.3392 17.2533 12.78V9.32C17.2529 9.04168 17.3076 8.76604 17.414 8.5089C17.5205 8.25175 17.6767 8.01817 17.8737 7.82156C18.0707 7.62495 18.3046 7.46918 18.5619 7.3632C18.8192 7.25722 19.095 7.20312 19.3733 7.204H22.8266C23.3697 7.22097 23.8856 7.44583 24.2677 7.83215C24.6498 8.21847 24.869 8.73675 24.88 9.28ZM24.88 19.3V22.76C24.8809 23.3107 24.6668 23.84 24.2833 24.2352C23.8998 24.6305 23.3771 24.8604 22.8266 24.876H19.3733C18.8117 24.876 18.2731 24.6532 17.8756 24.2565C17.4782 23.8598 17.2544 23.3216 17.2533 22.76V19.3C17.2565 18.7403 17.4814 18.2047 17.8788 17.8106C18.2762 17.4164 18.8136 17.1959 19.3733 17.1973H22.8266C23.3743 17.2145 23.894 17.4431 24.2768 17.8351C24.6596 18.2271 24.8758 18.7521 24.88 19.3Z" fill="white"/>
<path d="M28.3332 12.9267C28.0693 12.9232 27.8171 12.8169 27.6304 12.6304C27.4436 12.4439 27.337 12.1919 27.3332 11.928V7.816C27.3428 7.39935 27.2673 6.98513 27.1114 6.59862C26.9555 6.21211 26.7225 5.86144 26.4266 5.568C25.8408 4.98874 25.0504 4.66349 24.2266 4.66267H20.1599C19.8951 4.66267 19.6412 4.55768 19.4537 4.37072C19.2663 4.18376 19.1606 3.93009 19.1599 3.66533C19.1602 3.40035 19.2658 3.14634 19.4532 2.95909C19.6407 2.77184 19.8949 2.66667 20.1599 2.66667H24.2666C25.6177 2.70072 26.9012 3.26489 27.8399 4.23733C28.3148 4.70974 28.6913 5.27162 28.9476 5.89046C29.2039 6.50931 29.335 7.17284 29.3332 7.84267V11.9547C29.3259 12.215 29.2174 12.4622 29.0306 12.6437C28.8439 12.8253 28.5937 12.9268 28.3332 12.9267ZM24.2266 29.3333H20.1599C19.8951 29.3333 19.6412 29.2283 19.4537 29.0414C19.2663 28.8544 19.1606 28.6008 19.1599 28.336C19.1602 28.071 19.2658 27.817 19.4532 27.6298C19.6407 27.4425 19.8949 27.3373 20.1599 27.3373H24.2666C24.8815 27.3324 25.4809 27.1443 25.9885 26.7971C26.496 26.4499 26.8885 25.9593 27.1159 25.388C27.2667 25.0095 27.3406 24.6047 27.3332 24.1973V20.1253C27.3336 19.8603 27.4391 19.6063 27.6266 19.4191C27.8141 19.2318 28.0682 19.1267 28.3332 19.1267C28.5982 19.1267 28.8524 19.2318 29.0399 19.4191C29.2274 19.6063 29.3329 19.8603 29.3332 20.1253V24.1973C29.3357 25.2069 29.0374 26.1944 28.4762 27.0336C27.915 27.8729 27.1165 28.5259 26.1826 28.9093C25.5626 29.164 24.8972 29.296 24.2266 29.2933V29.3333ZM11.8932 29.3333H7.78655C7.11229 29.3329 6.44474 29.1996 5.82201 28.941C5.19928 28.6825 4.63358 28.3039 4.15722 27.8267C3.6819 27.35 3.3055 26.7841 3.04968 26.1615C2.79385 25.5389 2.66365 24.8718 2.66655 24.1987V20.1267C2.6669 19.8617 2.77242 19.6077 2.95992 19.4204C3.14741 19.2332 3.40157 19.128 3.66655 19.128C3.93154 19.128 4.18569 19.2332 4.37319 19.4204C4.56069 19.6077 4.6662 19.8617 4.66655 20.1267V24.1987C4.66973 25.0233 5.0001 25.813 5.5851 26.3943C6.1701 26.9755 6.96189 27.3008 7.78655 27.2987H11.8932C12.1582 27.2987 12.4124 27.4038 12.5999 27.5911C12.7874 27.7783 12.8929 28.0323 12.8932 28.2973C12.8934 28.4286 12.8676 28.5586 12.8174 28.6798C12.7672 28.8011 12.6935 28.9112 12.6006 29.0039C12.5076 29.0966 12.3973 29.17 12.2759 29.2199C12.1545 29.2698 12.0245 29.2952 11.8932 29.2947V29.3333ZM3.66655 12.9267C3.40264 12.9232 3.15048 12.8169 2.96372 12.6304C2.77697 12.4439 2.67035 12.1919 2.66655 11.928V7.816C2.67009 6.47229 3.20726 5.18501 4.15988 4.23733C5.12144 3.28461 6.41961 2.74906 7.77322 2.74667H11.8799C12.1449 2.74667 12.399 2.85184 12.5865 3.03909C12.774 3.22634 12.8795 3.48035 12.8799 3.74533C12.8792 4.01009 12.7735 4.26376 12.5861 4.45072C12.3986 4.63768 12.1446 4.74267 11.8799 4.74267H7.77322C6.94845 4.74019 6.15645 5.06536 5.57138 5.64669C4.9863 6.22801 4.65604 7.0179 4.65322 7.84267V11.9547C4.64601 12.2127 4.5393 12.458 4.3554 12.6391C4.1715 12.8203 3.92467 12.9233 3.66655 12.9267Z" fill="white"/>
<defs>
<linearGradient id="paint0_linear_79_205" x1="7.5" y1="5.5" x2="27" y2="28.5" gradientUnits="userSpaceOnUse">
<stop stop-color="#FC7228"/>
<stop offset="1" stop-color="#856DE3"/>
</linearGradient>
</defs>
</svg>
