<svg width="16" height="16" viewBox="0 0 16 16" fill="none" xmlns="http://www.w3.org/2000/svg">
<path d="M7.41356 4.64V6.37C7.41811 6.5807 7.35893 6.78787 7.24379 6.96439C7.12865 7.14092 6.9629 7.27857 6.76823 7.35933C6.63893 7.41318 6.50029 7.44105 6.36023 7.44133H4.6269C4.34726 7.44134 4.07895 7.33085 3.88041 7.13393C3.68187 6.93701 3.56918 6.66962 3.5669 6.39V4.65999C3.56672 4.52084 3.59403 4.38302 3.64726 4.25445C3.7005 4.12587 3.7786 4.00908 3.87709 3.91078C3.97558 3.81247 4.09252 3.73459 4.22119 3.6816C4.34987 3.62861 4.48774 3.60156 4.6269 3.602H6.36023C6.63643 3.60367 6.90107 3.7131 7.09781 3.90697C7.29454 4.10084 7.40783 4.36385 7.41356 4.64ZM7.41356 9.63666V11.3667C7.41392 11.6466 7.3032 11.9152 7.10572 12.1135C6.90824 12.3119 6.64013 12.4238 6.36023 12.4247H4.6269C4.34611 12.4247 4.0768 12.3133 3.87807 12.1149C3.67934 11.9165 3.56743 11.6474 3.5669 11.3667V9.63666C3.56831 9.35676 3.68071 9.08886 3.87945 8.89175C4.07818 8.69465 4.34699 8.58444 4.6269 8.58533H6.36023C6.63924 8.58533 6.90686 8.69603 7.10434 8.89314C7.30182 9.09024 7.41303 9.35765 7.41356 9.63666ZM12.4402 4.64V6.37C12.4442 6.64765 12.3387 6.9157 12.1466 7.11619C11.9545 7.31667 11.6911 7.43347 11.4136 7.44133H9.6869C9.40726 7.44134 9.13895 7.33085 8.94041 7.13393C8.74187 6.93701 8.62918 6.66962 8.6269 6.39V4.65999C8.62672 4.52084 8.65403 4.38302 8.70726 4.25445C8.7605 4.12587 8.8386 4.00908 8.93709 3.91078C9.03558 3.81247 9.15252 3.73459 9.28119 3.6816C9.40987 3.62861 9.54774 3.60156 9.6869 3.602H11.4136C11.6851 3.61048 11.943 3.72291 12.1341 3.91607C12.3251 4.10923 12.4347 4.36837 12.4402 4.64ZM12.4402 9.65V11.38C12.4407 11.6553 12.3336 11.92 12.1419 12.1176C11.9501 12.3152 11.6888 12.4302 11.4136 12.438H9.6869C9.40611 12.438 9.1368 12.3266 8.93807 12.1282C8.73934 11.9299 8.62743 11.6608 8.6269 11.38V9.65C8.62848 9.37015 8.74095 9.10235 8.93964 8.90528C9.13833 8.70821 9.40705 8.59795 9.6869 8.59866H11.4136C11.6874 8.60727 11.9472 8.72155 12.1386 8.91756C12.33 9.11356 12.4381 9.37605 12.4402 9.65Z" fill="white"/>
<path d="M14.1669 6.46331C14.0349 6.46159 13.9088 6.40845 13.8154 6.3152C13.7221 6.22194 13.6688 6.09593 13.6669 5.96398V3.90798C13.6716 3.69965 13.6339 3.49254 13.556 3.29929C13.478 3.10604 13.3615 2.9307 13.2135 2.78398C12.9206 2.49435 12.5254 2.33172 12.1135 2.33131H10.0802C9.94781 2.33131 9.82083 2.27882 9.7271 2.18534C9.63337 2.09186 9.58054 1.96502 9.58019 1.83265C9.58036 1.70015 9.63312 1.57315 9.72687 1.47952C9.82062 1.3859 9.94769 1.33331 10.0802 1.33331H12.1335C12.8091 1.35034 13.4509 1.63242 13.9202 2.11865C14.1576 2.35485 14.3459 2.63579 14.474 2.94521C14.6022 3.25463 14.6677 3.5864 14.6669 3.92131V5.97731C14.6632 6.10748 14.6089 6.23109 14.5155 6.32185C14.4222 6.41261 14.2971 6.46336 14.1669 6.46331ZM12.1135 14.6666H10.0802C9.94781 14.6666 9.82083 14.6142 9.7271 14.5207C9.63337 14.4272 9.58054 14.3004 9.58019 14.168C9.58036 14.0355 9.63312 13.9085 9.72687 13.8149C9.82062 13.7212 9.94769 13.6686 10.0802 13.6686H12.1335C12.441 13.6662 12.7407 13.5722 12.9945 13.3985C13.2482 13.2249 13.4445 12.9796 13.5582 12.694C13.6336 12.5047 13.6705 12.3023 13.6669 12.0986V10.0626C13.667 9.93015 13.7198 9.80315 13.8135 9.70952C13.9073 9.6159 14.0344 9.56331 14.1669 9.56331C14.2993 9.56331 14.4264 9.6159 14.5202 9.70952C14.6139 9.80315 14.6667 9.93015 14.6669 10.0626V12.0986C14.6681 12.6034 14.5189 13.0972 14.2383 13.5168C13.9578 13.9364 13.5585 14.2629 13.0915 14.4546C12.7815 14.582 12.4489 14.648 12.1135 14.6466V14.6666ZM5.94685 14.6666H3.89352C3.55639 14.6664 3.22261 14.5998 2.91125 14.4705C2.59988 14.3412 2.31703 14.1519 2.07885 13.9133C1.84119 13.675 1.65299 13.392 1.52508 13.0807C1.39717 12.7694 1.33207 12.4359 1.33352 12.0993V10.0633C1.3337 9.93082 1.38645 9.80381 1.4802 9.71019C1.57395 9.61657 1.70103 9.56398 1.83352 9.56398C1.96601 9.56398 2.09309 9.61657 2.18684 9.71019C2.28059 9.80381 2.33334 9.93082 2.33352 10.0633V12.0993C2.33511 12.5116 2.50029 12.9065 2.79279 13.1971C3.08529 13.4877 3.48119 13.6504 3.89352 13.6493H5.94685C6.07935 13.6493 6.20642 13.7019 6.30017 13.7955C6.39392 13.8891 6.44668 14.0162 6.44685 14.1486C6.44694 14.2143 6.43406 14.2793 6.40895 14.3399C6.38383 14.4005 6.34699 14.4556 6.30052 14.5019C6.25406 14.5483 6.19889 14.585 6.1382 14.6099C6.0775 14.6349 6.01248 14.6476 5.94685 14.6473V14.6666ZM1.83352 6.46331C1.70156 6.46159 1.57548 6.40845 1.48211 6.3152C1.38873 6.22194 1.33542 6.09593 1.33352 5.96398V3.90798C1.33529 3.23612 1.60387 2.59248 2.08019 2.11865C2.56096 1.64229 3.21005 1.37451 3.88685 1.37331H5.94019C6.07268 1.37331 6.19976 1.4259 6.2935 1.51952C6.38725 1.61315 6.44001 1.74015 6.44019 1.87265C6.43983 2.00502 6.387 2.13186 6.29327 2.22534C6.19954 2.31882 6.07256 2.37131 5.94019 2.37131H3.88685C3.47447 2.37007 3.07847 2.53266 2.78593 2.82332C2.49339 3.11398 2.32827 3.50893 2.32685 3.92131V5.97731C2.32325 6.10633 2.26989 6.22896 2.17794 6.31955C2.086 6.41013 1.96258 6.46164 1.83352 6.46331Z" fill="white"/>
</svg>
