<svg width="16" height="16" viewBox="0 0 16 16" fill="none" xmlns="http://www.w3.org/2000/svg">
<path d="M14.574 11.62L12.2273 2.79335C12.1016 2.33284 11.7999 1.94019 11.3873 1.70001C10.9831 1.46876 10.5039 1.40646 10.054 1.52668L7.54066 2.19335C7.40607 2.22873 7.27786 2.28497 7.16066 2.36001C6.99442 2.13704 6.77807 1.9563 6.52908 1.83238C6.28009 1.70847 6.00544 1.64485 5.72733 1.64668H3.12733C2.65171 1.64668 2.19557 1.83562 1.85925 2.17193C1.52294 2.50825 1.334 2.96439 1.334 3.44001V12.5267C1.33312 12.7627 1.37886 12.9967 1.46859 13.215C1.55832 13.4334 1.69028 13.6318 1.85689 13.7991C2.0235 13.9663 2.2215 14.099 2.43951 14.1895C2.65752 14.2801 2.89126 14.3267 3.12733 14.3267H5.72733C5.96371 14.3267 6.19777 14.2801 6.41616 14.1897C6.63455 14.0992 6.83298 13.9666 7.00012 13.7995C7.16727 13.6323 7.29985 13.4339 7.39031 13.2155C7.48077 12.9971 7.52733 12.7631 7.52733 12.5267V9.11335L8.62066 13.2067C8.68033 13.435 8.78549 13.649 8.92983 13.8357C9.07417 14.0224 9.25472 14.1781 9.46066 14.2933C9.732 14.4507 10.0407 14.5333 10.354 14.5333C10.5118 14.5351 10.6673 14.5173 10.8207 14.48L13.334 13.8133C13.5627 13.7539 13.7772 13.6494 13.9651 13.5062C14.153 13.3629 14.3105 13.1836 14.4284 12.9788C14.5464 12.7741 14.6223 12.5479 14.6519 12.3134C14.6814 12.079 14.664 11.841 14.6007 11.6133L14.574 11.62ZM4.40066 11.7933C4.16173 11.7947 3.92778 11.725 3.72847 11.5932C3.52916 11.4614 3.37346 11.2735 3.28111 11.0531C3.18875 10.8327 3.1639 10.5899 3.20971 10.3554C3.25551 10.1209 3.36991 9.90525 3.53839 9.73582C3.70688 9.5664 3.92187 9.45081 4.15612 9.40371C4.39038 9.35661 4.63334 9.38011 4.85422 9.47124C5.07509 9.56237 5.26394 9.71703 5.39683 9.9156C5.52972 10.1142 5.60066 10.3477 5.60066 10.5867C5.59544 10.9021 5.46692 11.2029 5.24262 11.4247C5.01833 11.6465 4.7161 11.7716 4.40066 11.7733V11.7933ZM11.0673 11.72C10.8247 11.72 10.5876 11.6481 10.3858 11.5133C10.1841 11.3785 10.0269 11.1869 9.93404 10.9628C9.84119 10.7386 9.8169 10.492 9.86423 10.254C9.91156 10.0161 10.0284 9.79751 10.1999 9.62596C10.3715 9.45441 10.5901 9.33758 10.828 9.29025C11.066 9.24292 11.3126 9.26721 11.5368 9.36005C11.7609 9.4529 11.9525 9.61012 12.0873 9.81185C12.2221 10.0136 12.294 10.2507 12.294 10.4933C12.2888 10.8129 12.1591 11.1178 11.9325 11.3432C11.7059 11.5686 11.4002 11.6966 11.0807 11.7L11.0673 11.72Z" fill="white"/>
</svg>
