<svg width="32" height="32" viewBox="0 0 32 32" fill="none" xmlns="http://www.w3.org/2000/svg">
<path d="M26.5068 24.6267C27.0935 23.6933 27.4402 22.6133 27.4402 21.44C27.4402 18.12 24.7602 15.44 21.4402 15.44C18.1202 15.44 15.4402 18.12 15.4402 21.44C15.4402 24.76 18.1202 27.44 21.4268 27.44C22.6002 27.44 23.6935 27.0933 24.6135 26.5067L28.7735 30.6667L30.6668 28.7733L26.5068 24.6267ZM21.4402 24.7733C20.5561 24.7733 19.7083 24.4221 19.0831 23.797C18.458 23.1719 18.1068 22.3241 18.1068 21.44C18.1068 20.556 18.458 19.7081 19.0831 19.083C19.7083 18.4579 20.5561 18.1067 21.4402 18.1067C22.3242 18.1067 23.1721 18.4579 23.7972 19.083C24.4223 19.7081 24.7735 20.556 24.7735 21.44C24.7735 22.3241 24.4223 23.1719 23.7972 23.797C23.1721 24.4221 22.3242 24.7733 21.4402 24.7733ZM20.9602 13.44C19.9735 13.4667 19.0268 13.68 18.1602 14.04L17.4268 12.9333L12.3602 21.1733L8.34683 16.48L3.50683 24.2267L1.3335 22.6667L8.00016 12L12.0002 16.6667L17.3335 8.00001L20.9602 13.44ZM24.4135 14.1067C23.5602 13.7333 22.6402 13.5067 21.6802 13.4533L28.5068 2.66667L30.6668 4.24001L24.4135 14.1067Z" fill="white"/>
</svg>
