<svg width="16" height="16" viewBox="0 0 16 16" fill="none" xmlns="http://www.w3.org/2000/svg">
<path fill-rule="evenodd" clip-rule="evenodd" d="M8 14V10H9V14H14V5H15V14C15 14.2652 14.8946 14.5196 14.7071 14.7071C14.5196 14.8946 14.2652 15 14 15H2C1.73478 15 1.48043 14.8946 1.29289 14.7071C1.10536 14.5196 1 14.2652 1 14V12H2V14H8ZM12.853 3.854L9.854 6.854C10.0144 7.18793 10.0456 7.5694 9.94151 7.92494C9.83744 8.28048 9.60548 8.58493 9.29031 8.77964C8.97515 8.97435 8.59908 9.04555 8.23456 8.97951C7.87003 8.91348 7.54284 8.71489 7.316 8.422L4.602 9.326L4 9.527C3.99369 9.88082 3.86249 10.221 3.62959 10.4875C3.3967 10.7539 3.0771 10.9294 2.7273 10.983C2.3775 11.0365 2.02003 10.9647 1.71807 10.7802C1.41611 10.5957 1.18912 10.3103 1.07721 9.9746C0.965308 9.63888 0.975699 9.27441 1.10655 8.94561C1.2374 8.61682 1.48028 8.34487 1.79226 8.17785C2.10424 8.01082 2.46523 7.95948 2.8114 8.03289C3.15758 8.1063 3.46666 8.29973 3.684 8.579L7 7.473C7.00446 7.22193 7.07188 6.976 7.19608 6.75775C7.32029 6.53951 7.49729 6.35593 7.71087 6.22387C7.92444 6.0918 8.16776 6.01546 8.4185 6.00186C8.66924 5.98825 8.91939 6.03782 9.146 6.146L12.146 3.146C11.9935 2.82671 11.9588 2.46377 12.048 2.12135C12.1372 1.77893 12.3445 1.47907 12.6335 1.27476C12.9224 1.07046 13.2742 0.97487 13.6268 1.00489C13.9794 1.03491 14.31 1.18861 14.5602 1.43882C14.8104 1.68903 14.9641 2.01964 14.9941 2.37222C15.0241 2.72479 14.9285 3.07663 14.7242 3.36554C14.5199 3.65445 14.2201 3.86184 13.8777 3.95104C13.5352 4.04024 13.1723 4.00552 12.853 3.853" fill="white"/>
</svg>
