<svg width="16" height="16" viewBox="0 0 16 16" fill="none" xmlns="http://www.w3.org/2000/svg">
<path d="M5.33317 8.00001H10.6665V6.66668H5.33317V8.00001ZM5.33317 5.33334H10.6665V4.00001H5.33317V5.33334ZM13.2998 13.65L10.5998 10.1333C10.4109 9.87779 10.1776 9.68068 9.89984 9.54201C9.62206 9.40334 9.32206 9.33379 8.99984 9.33334H2.6665V2.66668C2.6665 2.30001 2.79717 1.98623 3.0585 1.72534C3.31984 1.46445 3.63362 1.33379 3.99984 1.33334H11.9998C12.3665 1.33334 12.6805 1.46401 12.9418 1.72534C13.2032 1.98668 13.3336 2.30045 13.3332 2.66668V13.3333C13.3332 13.3889 13.3305 13.4418 13.3252 13.492C13.3198 13.5422 13.3114 13.5949 13.2998 13.65ZM3.99984 14.6667C3.63317 14.6667 3.31939 14.5362 3.0585 14.2753C2.79761 14.0145 2.66695 13.7005 2.6665 13.3333V10.6667H8.99984C9.11095 10.6667 9.21384 10.6918 9.3085 10.742C9.40317 10.7922 9.48362 10.8616 9.54984 10.95L12.3498 14.6167C12.2943 14.6389 12.2361 14.6529 12.1752 14.6587C12.1143 14.6645 12.0558 14.6671 11.9998 14.6667H3.99984Z" fill="white"/>
</svg>
