<svg width="16" height="16" viewBox="0 0 16 16" fill="none" xmlns="http://www.w3.org/2000/svg">
<path fill-rule="evenodd" clip-rule="evenodd" d="M13.1398 1.89134C13.6285 1.98934 14.0105 2.37134 14.1085 2.86001C14.1783 3.21015 14.1682 3.57153 14.079 3.91724C13.9898 4.26294 13.8237 4.58406 13.5931 4.85668L11.7591 7.02468L13.0551 11.7787C13.0938 11.9204 13.0944 12.0699 13.0567 12.2119C13.019 12.3539 12.9444 12.4834 12.8405 12.5873L11.9725 13.4553C11.8988 13.529 11.809 13.5846 11.7101 13.6176C11.6113 13.6507 11.5061 13.6604 11.4029 13.6459C11.2997 13.6314 11.2013 13.5932 11.1154 13.5342C11.0295 13.4752 10.9584 13.3971 10.9078 13.306L8.94648 9.77534L7.04114 11.3627L7.18114 12.0647C7.20823 12.1993 7.20165 12.3384 7.162 12.4699C7.12234 12.6013 7.05082 12.7209 6.95381 12.818L5.84448 13.9267C5.76901 14.002 5.67672 14.0584 5.57522 14.0911C5.47371 14.1238 5.36588 14.1319 5.26062 14.1148C5.15536 14.0977 5.05567 14.0558 4.96976 13.9926C4.88385 13.9294 4.81417 13.8467 4.76648 13.7513L3.92648 12.0733L2.24914 11.2333C2.15376 11.1856 2.07107 11.116 2.00788 11.0301C1.94469 10.9442 1.90281 10.8445 1.88569 10.7392C1.86857 10.6339 1.87669 10.5261 1.9094 10.4246C1.94211 10.3231 1.99846 10.2308 2.07381 10.1553L3.18314 9.04601C3.28021 8.9491 3.39968 8.87765 3.53098 8.838C3.66228 8.79834 3.80133 8.7917 3.93581 8.81867L4.63781 8.95867L6.22514 7.05401L2.69448 5.09201C2.60337 5.04141 2.52524 4.97036 2.46626 4.88444C2.40728 4.79852 2.36904 4.70009 2.35457 4.59688C2.34009 4.49367 2.34977 4.38852 2.38284 4.28969C2.41591 4.19086 2.47147 4.10105 2.54514 4.02734L3.41314 3.15934C3.51704 3.05544 3.64657 2.98087 3.78858 2.94317C3.9306 2.90547 4.08006 2.90599 4.22181 2.94468L8.97514 4.24068L11.1438 2.40668C11.4164 2.17612 11.7375 2.01005 12.0833 1.92083C12.429 1.8316 12.7903 1.82152 13.1405 1.89134H13.1398ZM12.8118 3.18801C12.6682 3.16896 12.5222 3.18011 12.3832 3.22075C12.2442 3.26139 12.1152 3.33062 12.0045 3.42401L9.57114 5.48334C9.48775 5.55383 9.38847 5.60298 9.28185 5.62656C9.17523 5.65014 9.06448 5.64743 8.95914 5.61868L4.15048 4.30668L4.10581 4.35068L7.56914 6.27468C7.65578 6.3228 7.73072 6.38946 7.78862 6.46989C7.84652 6.55033 7.88596 6.64255 7.9041 6.73998C7.92225 6.83741 7.91867 6.93764 7.89361 7.03353C7.86855 7.12941 7.82264 7.21858 7.75914 7.29468L5.40981 10.1133C5.33224 10.2065 5.23097 10.2769 5.11668 10.3173C5.00239 10.3577 4.87933 10.3664 4.76048 10.3427L3.93581 10.178L3.66381 10.45L4.70181 10.9693C4.84375 11.0403 4.95885 11.1554 5.02981 11.2973L5.54981 12.3353L5.82114 12.0633L5.65648 11.2387C5.63272 11.1198 5.64149 10.9968 5.68185 10.8825C5.72222 10.7682 5.79268 10.6669 5.88581 10.5893L8.70514 8.24001C8.78124 8.17651 8.87041 8.1306 8.96629 8.10554C9.06218 8.08048 9.16241 8.0769 9.25984 8.09505C9.35727 8.1132 9.44949 8.15263 9.52993 8.21053C9.61036 8.26843 9.67702 8.34337 9.72514 8.43001L11.6485 11.8933L11.6925 11.8487L10.3811 7.04001C10.3525 6.93462 10.3499 6.82383 10.3736 6.71722C10.3973 6.6106 10.4465 6.51134 10.5171 6.42801L12.5758 3.99468C12.7658 3.77001 12.8505 3.47734 12.8118 3.18801Z" fill="white"/>
</svg>
