<svg width="16" height="16" viewBox="0 0 16 16" fill="none" xmlns="http://www.w3.org/2000/svg">
<path d="M3.42822 12.2858H13.0042C13.0042 12.2858 12.8568 12.7503 12.8568 13.4286C12.8568 14.1069 13.0042 14.5715 13.0042 14.5715H4.99965C4.79329 14.5715 4.58895 14.5308 4.39829 14.4519C4.20764 14.3729 4.0344 14.2571 3.88848 14.1112C3.59378 13.8165 3.42822 13.4168 3.42822 13.0001V12.2858Z" fill="url(#paint0_linear_74_103)"/>
<path d="M4.99979 1.14288C4.43147 1.14288 3.88643 1.36865 3.48456 1.77051C3.0827 2.17238 2.85693 2.71742 2.85693 3.28574V12.7143C2.85693 13.2826 3.0827 13.8277 3.48456 14.2295C3.88643 14.6314 4.43147 14.8572 4.99979 14.8572H12.7141C12.8277 14.8572 12.9367 14.812 13.0171 14.7316C13.0975 14.6513 13.1426 14.5423 13.1426 14.4286C13.1426 14.3149 13.0975 14.2059 13.0171 14.1256C12.9367 14.0452 12.8277 14 12.7141 14H4.99979C4.68354 14 4.37839 13.8835 4.14267 13.6726C3.90696 13.4618 3.75722 13.1715 3.72208 12.8572H12.2855C12.5128 12.8572 12.7309 12.7669 12.8916 12.6061C13.0523 12.4454 13.1426 12.2274 13.1426 12V3.28574C13.1426 2.71742 12.9169 2.17238 12.515 1.77051C12.1132 1.36865 11.5681 1.14288 10.9998 1.14288H4.99979Z" fill="url(#paint1_linear_74_103)"/>
<path d="M5.57122 3.14288C5.17693 3.14288 4.85693 3.46288 4.85693 3.85717V5.28574C4.85693 5.68003 5.17693 6.00003 5.57122 6.00003H10.4284C10.8226 6.00003 11.1426 5.68003 11.1426 5.28574V3.85717C11.1426 3.46288 10.8226 3.14288 10.4284 3.14288H5.57122Z" fill="url(#paint2_linear_74_103)"/>
<defs>
<linearGradient id="paint0_linear_74_103" x1="7.80079" y1="13.9429" x2="7.80079" y2="12.5715" gradientUnits="userSpaceOnUse">
<stop stop-color="#9DEAFF"/>
<stop offset="0.716" stop-color="#58AAFE"/>
</linearGradient>
<linearGradient id="paint1_linear_74_103" x1="6.40551" y1="3.7086" x2="8.65065" y2="18.4383" gradientUnits="userSpaceOnUse">
<stop stop-color="#20AC9D"/>
<stop offset="1" stop-color="#2052CB"/>
</linearGradient>
<linearGradient id="paint2_linear_74_103" x1="7.02493" y1="2.6526" x2="10.4689" y2="7.36803" gradientUnits="userSpaceOnUse">
<stop stop-color="#9FF0F9"/>
<stop offset="1" stop-color="#6CE0FF"/>
</linearGradient>
</defs>
</svg>
