<svg width="16" height="16" viewBox="0 0 16 16" fill="none" xmlns="http://www.w3.org/2000/svg">
<path d="M6.32 2.31249C5.19094 1.77343 3.61281 1.50937 1.5 1.49999C1.30074 1.49729 1.10539 1.55539 0.940002 1.66655C0.804248 1.75831 0.693122 1.88203 0.616398 2.02681C0.539674 2.17159 0.499704 2.33301 0.500002 2.49687V11.4375C0.500002 12.0419 0.930002 12.4978 1.5 12.4978C3.72094 12.4978 5.94875 12.7053 7.28313 13.9666C7.30138 13.9839 7.32432 13.9955 7.34911 13.9999C7.37389 14.0043 7.39942 14.0013 7.42253 13.9913C7.44563 13.9813 7.46529 13.9648 7.47907 13.9437C7.49284 13.9226 7.50012 13.898 7.5 13.8728V3.33812C7.50004 3.26704 7.48482 3.19679 7.45539 3.1321C7.42595 3.06741 7.38298 3.00978 7.32938 2.96312C7.02372 2.70182 6.6842 2.48296 6.32 2.31249ZM15.06 1.66562C14.8945 1.55473 14.6992 1.49695 14.5 1.49999C12.3872 1.50937 10.8091 1.77218 9.68 2.31249C9.31582 2.48265 8.97621 2.70107 8.67031 2.96187C8.61681 3.0086 8.57393 3.06625 8.54456 3.13093C8.51518 3.19561 8.49999 3.26583 8.5 3.33687V13.8722C8.49999 13.8964 8.50711 13.92 8.52049 13.9402C8.53387 13.9603 8.5529 13.9761 8.57519 13.9855C8.59749 13.9948 8.62206 13.9974 8.64582 13.9929C8.66958 13.9884 8.69147 13.9769 8.70875 13.96C9.51094 13.1631 10.9188 12.4969 14.5013 12.4972C14.7665 12.4972 15.0208 12.3918 15.2084 12.2043C15.3959 12.0168 15.5013 11.7624 15.5013 11.4972V2.49718C15.5016 2.333 15.4616 2.17126 15.3846 2.02623C15.3076 1.8812 15.1962 1.75735 15.06 1.66562Z" fill="white"/>
</svg>
