<svg width="16" height="16" viewBox="0 0 16 16" fill="none" xmlns="http://www.w3.org/2000/svg">
<path d="M13.75 12.4219C14.0938 12.5938 14.4036 12.8047 14.6797 13.0547C14.9557 13.3047 15.1901 13.5833 15.3828 13.8906C15.5755 14.1979 15.7266 14.5312 15.8359 14.8906C15.9453 15.25 16 15.6198 16 16H15C15 15.5885 14.9219 15.2005 14.7656 14.8359C14.6094 14.4714 14.3958 14.1536 14.125 13.8828C13.8542 13.612 13.5339 13.3958 13.1641 13.2344C12.7943 13.0729 12.4062 12.9948 12 13C11.5833 13 11.1953 13.0781 10.8359 13.2344C10.4766 13.3906 10.1589 13.6042 9.88281 13.875C9.60677 14.1458 9.39062 14.4661 9.23438 14.8359C9.07812 15.2057 9 15.5938 9 16H8C8 15.6198 8.05208 15.25 8.15625 14.8906C8.26042 14.5312 8.41146 14.1979 8.60938 13.8906C8.80729 13.5833 9.04427 13.3047 9.32031 13.0547C9.59635 12.8047 9.90625 12.5938 10.25 12.4219C9.85938 12.1406 9.55469 11.7891 9.33594 11.3672C9.11719 10.9453 9.00521 10.4896 9 10C9 9.58854 9.07812 9.20052 9.23438 8.83594C9.39062 8.47135 9.60417 8.15365 9.875 7.88281C10.1458 7.61198 10.4635 7.39583 10.8281 7.23438C11.1927 7.07292 11.5833 6.99479 12 7C12.4115 7 12.7995 7.07812 13.1641 7.23438C13.5286 7.39062 13.8464 7.60417 14.1172 7.875C14.388 8.14583 14.6042 8.46615 14.7656 8.83594C14.9271 9.20573 15.0052 9.59375 15 10C15 10.4896 14.8906 10.9453 14.6719 11.3672C14.4531 11.7891 14.1458 12.1406 13.75 12.4219ZM12 12C12.276 12 12.5339 11.9479 12.7734 11.8438C13.013 11.7396 13.2266 11.5964 13.4141 11.4141C13.6016 11.2318 13.7448 11.0208 13.8438 10.7812C13.9427 10.5417 13.9948 10.2812 14 10C14 9.72396 13.9479 9.46615 13.8438 9.22656C13.7396 8.98698 13.5964 8.77344 13.4141 8.58594C13.2318 8.39844 13.0208 8.25521 12.7812 8.15625C12.5417 8.05729 12.2812 8.00521 12 8C11.724 8 11.4661 8.05208 11.2266 8.15625C10.987 8.26042 10.7734 8.40365 10.5859 8.58594C10.3984 8.76823 10.2552 8.97917 10.1562 9.21875C10.0573 9.45833 10.0052 9.71875 10 10C10 10.276 10.0521 10.5339 10.1562 10.7734C10.2604 11.013 10.4036 11.2266 10.5859 11.4141C10.7682 11.6016 10.9792 11.7448 11.2188 11.8438C11.4583 11.9427 11.7188 11.9948 12 12ZM8 12.625C7.83333 12.8177 7.68229 13.0182 7.54688 13.2266C7.41146 13.4349 7.29167 13.6589 7.1875 13.8984C6.91146 13.612 6.57812 13.3906 6.1875 13.2344C5.79688 13.0781 5.40104 13 5 13H2V3H1V14H7.14844C7.07552 14.1615 7.01562 14.3255 6.96875 14.4922C6.92188 14.6589 6.88281 14.8281 6.85156 15H0V2H2V1H5C5.45833 1 5.89844 1.07031 6.32031 1.21094C6.74219 1.35156 7.13542 1.5625 7.5 1.84375C7.85938 1.5625 8.25 1.35156 8.67188 1.21094C9.09375 1.07031 9.53646 1 10 1H13V2H15V7C14.6979 6.70312 14.3646 6.45573 14 6.25781V3H13V5.88281C12.8333 5.83594 12.6667 5.80208 12.5 5.78125C12.3333 5.76042 12.1667 5.75 12 5.75V2H10C9.63542 2 9.28125 2.0625 8.9375 2.1875C8.59375 2.3125 8.28125 2.4974 8 2.74219V12.625ZM7 12.5234V2.74219C6.71875 2.5026 6.40625 2.32031 6.0625 2.19531C5.71875 2.07031 5.36458 2.00521 5 2H3V12H5C5.34896 12 5.69271 12.0443 6.03125 12.1328C6.36979 12.2214 6.69271 12.3516 7 12.5234Z" fill="white"/>
</svg>
