<svg width="32" height="32" viewBox="0 0 32 32" fill="none" xmlns="http://www.w3.org/2000/svg">
<path d="M8.68514 2.66667C6.94647 2.83867 5.77581 3.22534 4.90114 4.10134C3.33447 5.67067 3.33447 8.19734 3.33447 13.252V18.612C3.33447 23.6653 3.33447 26.1933 4.90114 27.764C6.46781 29.3347 8.99047 29.3333 14.0345 29.3333H16.7105C21.7545 29.3333 24.2771 29.3333 25.8438 27.764C27.2665 26.3373 27.3985 24.1413 27.4105 19.9693" stroke="white" stroke-width="1.5" stroke-linecap="round" stroke-linejoin="round"/>
<path d="M14.0346 9.33334L15.3719 14C16.1186 15.48 17.0559 15.8667 19.3853 16C21.2373 15.9547 22.3119 15.736 23.2293 14.9387C23.8546 14.3947 24.1373 13.5747 24.2746 12.7587L24.7333 10M28.0773 7.33334V14M11.4679 6.57734C13.5839 4.82134 15.4693 3.87867 19.3799 2.84134C19.8211 2.72486 20.2853 2.72716 20.7253 2.84801C24.1866 3.80001 26.0559 4.64534 28.5599 6.52534C28.6666 6.60534 28.6986 6.75467 28.6239 6.86534C27.8066 8.06801 25.9813 9.04267 21.5039 10.7787C20.5714 11.1375 19.5378 11.1318 18.6093 10.7627C13.8413 8.86934 11.6493 7.85601 11.3826 6.80401C11.3739 6.76202 11.3774 6.71844 11.3925 6.67832C11.4076 6.6382 11.4337 6.60319 11.4679 6.57734Z" stroke="white" stroke-width="1.5" stroke-linecap="round" stroke-linejoin="round"/>
</svg>
