<svg width="16" height="16" viewBox="0 0 16 16" fill="none" xmlns="http://www.w3.org/2000/svg">
<path d="M8.11389 1.04956C6.71707 1.36569 5.09589 1.86441 3.67701 2.391C2.34692 2.88462 1.18573 3.41587 0.620262 3.77287L1.51507 5.02306C2.67026 4.43237 5.11182 3.33853 8.08964 2.46016C8.09323 2.07556 8.10295 1.62731 8.11392 1.04953L8.11389 1.04956ZM8.09029 3.04712C5.29176 3.88581 2.97114 4.91825 1.84626 5.48572L2.20136 5.98187C4.2312 5.14228 6.26354 4.33147 8.11523 3.67359C8.10161 3.46866 8.09379 3.26556 8.09029 3.04712ZM8.4297 4.15912C6.44636 4.85934 4.23636 5.7449 2.03926 6.65753L2.03729 6.65291C1.33901 7.00125 0.902137 7.37853 0.565918 7.76391C0.665105 7.76997 0.774793 7.77209 0.903512 7.76266C1.26364 7.73619 1.72507 7.65228 2.2467 7.52234C3.29004 7.26247 4.5767 6.82044 5.85336 6.30756C7.13001 5.79469 8.39848 5.21056 9.41089 4.66887C10.0489 4.32756 10.5701 3.99637 10.9352 3.72612C10.0839 3.72287 9.14067 3.92319 8.4297 4.15912ZM9.00379 5.51225C8.83276 5.59763 8.661 5.68156 8.48854 5.76403C8.69589 5.89141 8.84736 6.10678 8.93751 6.34503C9.06076 6.67065 9.09039 7.06047 9.0177 7.46378C8.94504 7.86712 8.78248 8.21531 8.55554 8.46522C8.32861 8.71512 8.01073 8.87875 7.67195 8.80547C7.33314 8.73222 7.09592 8.4485 6.97267 8.12287C6.84942 7.79725 6.81973 7.40744 6.89242 7.00409C6.93192 6.78472 6.99826 6.58184 7.08686 6.40203C6.74747 6.54896 6.40618 6.69145 6.06307 6.82947C5.61166 7.01101 5.1569 7.18409 4.69901 7.34862C5.05382 8.0025 5.55276 8.53853 6.3042 8.92072L6.59076 9.06647L6.4082 9.33112C6.14239 9.71653 6.19623 10.2881 6.46679 10.7053C6.73736 11.1225 7.15026 11.3583 7.67429 11.1552C9.53161 10.4349 10.9314 10.2548 12.2298 10.4954C13.3185 10.6971 14.3275 11.1953 15.4746 11.8644C15.0863 10.9814 14.4131 10.0712 13.5768 9.29541C12.5148 8.31025 11.2005 7.54259 9.94148 7.27509L9.76539 7.23765L9.72567 7.06212C9.70061 6.95156 9.47564 6.13359 9.00379 5.51228V5.51225ZM8.08107 6.21137C7.99364 6.21481 7.88726 6.26587 7.77145 6.39344C7.62886 6.55044 7.49854 6.81137 7.44239 7.12306C7.38623 7.43475 7.41629 7.73044 7.49373 7.935C7.57117 8.13956 7.67551 8.23091 7.77173 8.25172C7.86795 8.27253 7.99617 8.23153 8.13873 8.07453C8.28132 7.91753 8.4117 7.6565 8.46786 7.34484C8.52398 7.03319 8.49389 6.73747 8.41645 6.5329C8.33901 6.32831 8.23467 6.237 8.13845 6.21619C8.1196 6.21217 8.10033 6.21055 8.08107 6.21137ZM4.16189 7.53637C3.59107 7.73009 3.04251 7.8974 2.53751 8.0285C2.40689 8.77878 2.84179 9.76112 3.14782 10.253C4.2782 11.0673 5.27876 11.8802 7.09251 12.4412L6.9397 11.7279C6.54698 11.6162 6.21204 11.3462 5.99489 11.0113C5.67042 10.511 5.55567 9.84731 5.79957 9.27978C5.05207 8.83709 4.52761 8.23122 4.16189 7.53637ZM2.3947 10.4139C2.11248 10.8278 1.64564 11.0043 1.21273 11.0942C1.69039 11.8879 2.76089 12.6538 4.12573 13.3475C5.41651 14.0035 6.94998 14.6028 8.44495 15.1787C8.07332 14.5731 7.81851 13.9033 7.74795 13.1997C5.05536 12.5576 3.83867 11.4095 2.3947 10.4139ZM1.5292 12.3379C1.12657 13.257 0.837449 14.2407 0.789918 15.2187H6.99579C5.90754 14.7883 4.83061 14.3367 3.87086 13.8489C2.95836 13.3852 2.14423 12.893 1.5292 12.3379Z" fill="white"/>
</svg>
