<svg fill="#ffffff" width="16px" height="16px" viewBox="0 0 0.48 0.48" xmlns="http://www.w3.org/2000/svg"><path d="M0.08 0.08h0.12v0.12H0.08zm0.32 0v0.12h-0.12V0.08zm-0.12 0.22h0.04v-0.04h-0.04v-0.04h0.04v0.04h0.04v-0.04h0.04v0.04h-0.04v0.04h0.04v0.06h-0.04v0.04h-0.04v-0.04h-0.06v0.04h-0.04v-0.08h0.06zm0.04 0v0.06h0.04v-0.06zM0.08 0.4v-0.12h0.12v0.12zM0.12 0.12v0.04h0.04V0.12zm0.2 0v0.04h0.04V0.12zM0.12 0.32v0.04h0.04v-0.04zm-0.04 -0.1h0.04v0.04H0.08zm0.1 0h0.08v0.08h-0.04v-0.04H0.18zm0.04 -0.1h0.04v0.08h-0.04zM0.04 0.04v0.08H0V0.04a0.04 0.04 0 0 1 0.04 -0.04h0.08v0.04zm0.4 -0.04a0.04 0.04 0 0 1 0.04 0.04v0.08h-0.04V0.04h-0.08V0zM0.04 0.36v0.08h0.08v0.04H0.04a0.04 0.04 0 0 1 -0.04 -0.04v-0.08zm0.4 0.08v-0.08h0.04v0.08a0.04 0.04 0 0 1 -0.04 0.04h-0.08v-0.04Z"/></svg>